<svg version="1.1" preserveAspectRatio="none" xmlns="http://www.w3.org/2000/svg" width="500" height="500" viewBox="0 0 500 500"><rect width="100%" height="100%" fill="#1C1C1C" fill-opacity="1"/><svg viewBox="102.7418 3.6612 347.4884 372.3388" width="310.7751252354039" height="333" x="94.6124px" y="83.5px" xmlns="http://www.w3.org/2000/svg" xmlns:xlink="http://www.w3.org/1999/xlink" preserveAspectRatio="none"><defs></defs><style>.companyName {fill:#EDEDED;fill-opacity:1;}.icon1 {fill:#EDEDED;fill-opacity:1;}.icon2 {fill:#F35F40;fill-opacity:1;}.icon3 {fill:#B2B2B1;fill-opacity:1;}.icon3-str {stroke:#B2B2B1;stroke-opacity:1;}</style><g opacity="1" transform="rotate(0 102.7418 3.6612)">
<svg width="347.4884" height="282.3388" x="102.7418" y="3.6612" version="1.1" preserveAspectRatio="none" viewBox="40.375 51.553001403808594 119.25100708007812 96.89299774169922">
  <g transform="matrix(1 0 0 1 0 0)"><g><path d="M155.582 148.446H44.418a4.048 4.048 0 0 1-4.043-4.044V55.597a4.048 4.048 0 0 1 4.043-4.044h111.165a4.048 4.048 0 0 1 4.043 4.044v88.806a4.049 4.049 0 0 1-4.044 4.043zM44.418 55.281a.317.317 0 0 0-.317.317v88.806c0 .175.143.317.317.317h111.165a.317.317 0 0 0 .317-.317V55.597a.318.318 0 0 0-.317-.317H44.418z" data-color="1" class="icon1"></path><path d="M157.762 76.708v1.863H42.237v-1.863h115.525z" data-color="1" class="icon1"></path><path d="M64.597 65.528v1.863h-11.18v-1.863h11.18z" data-color="1" class="icon1"></path><path d="M120.496 71.118a4.663 4.663 0 0 1-4.658-4.658 4.663 4.663 0 0 1 4.658-4.658 4.663 4.663 0 0 1 4.658 4.658 4.662 4.662 0 0 1-4.658 4.658zm0-7.453a2.798 2.798 0 0 0-2.795 2.795 2.798 2.798 0 0 0 2.795 2.795 2.798 2.798 0 0 0 2.795-2.795 2.797 2.797 0 0 0-2.795-2.795z" data-color="1" class="icon1"></path><path d="M131.677 71.118a4.663 4.663 0 0 1-4.658-4.658 4.663 4.663 0 0 1 4.658-4.658 4.662 4.662 0 0 1 4.657 4.658 4.662 4.662 0 0 1-4.657 4.658zm0-7.453a2.798 2.798 0 0 0-2.795 2.795 2.798 2.798 0 0 0 2.795 2.795 2.798 2.798 0 0 0 2.794-2.795 2.798 2.798 0 0 0-2.794-2.795z" data-color="1" class="icon1"></path><path d="M142.856 71.118a4.663 4.663 0 0 1-4.658-4.658c0-2.569 2.09-4.658 4.658-4.658s4.658 2.089 4.658 4.658a4.662 4.662 0 0 1-4.658 4.658zm0-7.453a2.798 2.798 0 0 0-2.795 2.795c0 1.541 1.254 2.795 2.795 2.795s2.795-1.254 2.795-2.795a2.797 2.797 0 0 0-2.795-2.795z" data-color="1" class="icon1"></path><path d="M96.784 120.833a1.864 1.864 0 0 1-1.863-1.866l.029-23.033a1.863 1.863 0 0 1 2.959-1.506l15.848 11.517a1.863 1.863 0 0 1-.001 3.015l-15.877 11.516a1.86 1.86 0 0 1-1.095.357zm1.887-21.243l-.019 15.723 10.838-7.861-10.819-7.862z" data-color="1" class="icon1"></path><path d="M61.2 114.765l-8.098-8.095 8.097-8.128 1.32 1.315-6.784 6.81 6.783 6.781-1.318 1.317z" data-color="1" class="icon1"></path><path d="M138.8 114.765l-1.318-1.317 6.783-6.781-6.784-6.81 1.32-1.315 8.097 8.128-8.098 8.095z" data-color="1" class="icon1"></path></g></g>
</svg>
</g><g opacity="1" transform="rotate(0 102.7418 326)">
<svg width="347.4884" height="50" x="102.7418" y="326" version="1.1" preserveAspectRatio="none" viewBox="0.76 -34.68 243.24 35">
  <g transform="matrix(1 0 0 1 0 0)" class="companyName"><path id="id-D6z1nYkh12" d="M9.16 0.32Q6.80 0.32 4.88-0.60Q2.96-1.52 1.86-3.30Q0.76-5.08 0.76-7.60L0.76-7.60L0.76-16.20L7.52-16.20L7.52-8Q7.52-7.08 7.90-6.54Q8.28-6 9.08-6L9.08-6Q9.84-6 10.22-6.50Q10.60-7 10.60-7.92L10.60-7.92L10.60-34.36L17.52-34.36L17.52-8.60Q17.52-5.92 16.46-3.90Q15.40-1.88 13.50-0.78Q11.60 0.32 9.16 0.32L9.16 0.32Z M31.16 0.32Q27 0.32 24.84-2.22Q22.68-4.76 22.68-9.36L22.68-9.36L22.68-25.72Q22.68-30.16 24.84-32.42Q27-34.68 31.16-34.68L31.16-34.68Q35.32-34.68 37.48-32.42Q39.64-30.16 39.64-25.72L39.64-25.72L39.64-9.36Q39.64-4.72 37.48-2.20Q35.32 0.32 31.16 0.32L31.16 0.32ZM31.16-6Q32.08-6 32.40-6.80Q32.72-7.60 32.72-9.04L32.72-9.04L32.72-25.84Q32.72-26.96 32.42-27.66Q32.12-28.36 31.20-28.36L31.20-28.36Q29.48-28.36 29.48-25.76L29.48-25.76L29.48-9Q29.48-7.52 29.84-6.76Q30.20-6 31.16-6L31.16-6Z M50.96 0L44.28 0L47.60-34.36L59.24-34.36L62.52 0L56 0L55.52-5.56L51.36-5.56L50.96 0ZM53.16-28.52L51.88-11.04L55-11.04L53.48-28.52L53.16-28.52Z M67.40 0L67.40-34.36L76.72-34.36Q80.48-34.36 82.18-32.52Q83.88-30.68 83.88-26.52L83.88-26.52L83.88-25Q83.88-20.08 80.36-19.12L80.36-19.12Q82.52-18.56 83.40-16.52Q84.28-14.48 84.28-11.12L84.28-11.12Q84.28-5.64 82.64-2.82Q81 0 76.72 0L76.72 0L67.40 0ZM74.12-21.44L75.52-21.44Q76.40-21.44 76.72-22.10Q77.04-22.76 77.04-23.96L77.04-23.96L77.04-27.40Q77.04-29.08 75.56-29.08L75.56-29.08L74.12-29.08L74.12-21.44ZM74.80-6.04Q77.48-6.04 77.48-8.60L77.48-8.60L77.48-12.88Q77.48-14.44 77.02-15.24Q76.56-16.04 75.40-16.04L75.40-16.04L74.12-16.04L74.12-6.08L74.80-6.04Z M103.56 0L89.36 0L89.36-34.36L103.12-34.36L103.12-27.72L96.36-27.72L96.36-21.04L102.84-21.04L102.84-14.56L96.36-14.56L96.36-6.68L103.56-6.68L103.56 0Z M128.96 0.32Q124.28 0.32 122.20-2Q120.12-4.32 120.12-9.48L120.12-9.48L120.12-12.84L126.88-12.84L126.88-8.56Q126.88-6 128.52-6L128.52-6Q129.44-6 129.80-6.54Q130.16-7.08 130.16-8.36L130.16-8.36Q130.16-10.04 129.76-11.14Q129.36-12.24 128.74-12.98Q128.12-13.72 126.52-15.28L126.52-15.28L123.56-18.24Q120.12-21.60 120.12-25.68L120.12-25.68Q120.12-30.08 122.14-32.38Q124.16-34.68 128.04-34.68L128.04-34.68Q132.68-34.68 134.72-32.22Q136.76-29.76 136.76-24.52L136.76-24.52L129.76-24.52L129.72-26.88Q129.72-27.56 129.34-27.96Q128.96-28.36 128.28-28.36L128.28-28.36Q127.48-28.36 127.08-27.92Q126.68-27.48 126.68-26.72L126.68-26.72Q126.68-25.04 128.60-23.24L128.60-23.24L132.60-19.40Q134-18.04 134.92-16.82Q135.84-15.60 136.40-13.94Q136.96-12.28 136.96-10L136.96-10Q136.96-4.92 135.10-2.30Q133.24 0.32 128.96 0.32L128.96 0.32Z M147.80 0L141.12 0L144.44-34.36L156.08-34.36L159.36 0L152.84 0L152.36-5.56L148.20-5.56L147.80 0ZM150-28.52L148.72-11.04L151.84-11.04L150.32-28.52L150-28.52Z M170.96 0L164.24 0L164.24-34.36L171.32-34.36L174.48-17.92L174.48-34.36L181.12-34.36L181.12 0L174.40 0L170.96-17.20L170.96 0Z M196.80 0L189.92 0L189.92-27.76L185.84-27.76L185.84-34.36L200.88-34.36L200.88-27.76L196.80-27.76L196.80 0Z M213.80 0.32Q209.64 0.32 207.48-2.22Q205.32-4.76 205.32-9.36L205.32-9.36L205.32-25.72Q205.32-30.16 207.48-32.42Q209.64-34.68 213.80-34.68L213.80-34.68Q217.96-34.68 220.12-32.42Q222.28-30.16 222.28-25.72L222.28-25.72L222.28-9.36Q222.28-4.72 220.12-2.20Q217.96 0.32 213.80 0.32L213.80 0.32ZM213.80-6Q214.72-6 215.04-6.80Q215.36-7.60 215.36-9.04L215.36-9.04L215.36-25.84Q215.36-26.96 215.06-27.66Q214.76-28.36 213.84-28.36L213.84-28.36Q212.12-28.36 212.12-25.76L212.12-25.76L212.12-9Q212.12-7.52 212.48-6.76Q212.84-6 213.80-6L213.80-6Z M236.00 0.32Q231.32 0.32 229.24-2Q227.16-4.32 227.16-9.48L227.16-9.48L227.16-12.84L233.92-12.84L233.92-8.56Q233.92-6 235.56-6L235.56-6Q236.48-6 236.84-6.54Q237.20-7.08 237.20-8.36L237.20-8.36Q237.20-10.04 236.80-11.14Q236.40-12.24 235.78-12.98Q235.16-13.72 233.56-15.28L233.56-15.28L230.60-18.24Q227.16-21.60 227.16-25.68L227.16-25.68Q227.16-30.08 229.18-32.38Q231.20-34.68 235.08-34.68L235.08-34.68Q239.72-34.68 241.76-32.22Q243.80-29.76 243.80-24.52L243.80-24.52L236.80-24.52L236.76-26.88Q236.76-27.56 236.38-27.96Q236.00-28.36 235.32-28.36L235.32-28.36Q234.52-28.36 234.12-27.92Q233.72-27.48 233.72-26.72L233.72-26.72Q233.72-25.04 235.64-23.24L235.64-23.24L239.64-19.40Q241.04-18.04 241.96-16.82Q242.88-15.60 243.44-13.94Q244.00-12.28 244.00-10L244.00-10Q244.00-4.92 242.14-2.30Q240.28 0.32 236.00 0.32L236.00 0.32Z"/></g>
</svg>
</g></svg></svg>